<?xml version='1.0' encoding='utf-8'?>
<svg xmlns="http://www.w3.org/2000/svg" version="1.1" width="600px" height="976px" viewBox="0 0 600 976"> <g id="layer1"> <g style="fill:rgb(0,0,0); fill-opacity:1.0; stroke-linejoin: miter"> <path d="M309.6742,348.5578C307.29138,349.7492,304.86093,351.22656,304.33673,351.9414C302.57343,354.1812,301.38202,358.27972,301.2867,362.3781C301.1914,365.857,301.09607,366.1906,300.23828,366.1906C299.18982,366.1906,298.28436,368.3828,297.76013,372.0047C297.28357,375.57892,299.33282,378.53363,301.47736,377.34222C302.90704,376.57965,303.33594,377.2469,303.66953,380.8687C303.9078,383.77582,303.86017,384.0617,303.05,384.0617C301.33435,384.10938,298.33203,385.825,294.9961,388.6844C291.04062,392.06793,290.42108,392.40155,287.60938,392.8781C284.60703,393.35468,283.27264,394.16486,280.9375,396.78595C275.8383,402.60004,273.93204,411.70233,276.1242,419.8039L276.9344,422.90155L275.12344,426.38043C273.6461,429.2398,273.3125,430.33594,273.3125,432.57574C273.3125,434.14844,272.8836,436.53125,272.3117,438.19922C270.88202,442.29767,269.02344,443.20313,267.54608,440.48676C267.06952,439.53363,267.02188,439.10468,267.49844,438.38983C268.92813,436.0547,267.16486,435.0063,263.63828,435.9594C261.875,436.48358,261.35077,436.43597,259.2539,435.48285C257.91953,434.86328,255.39374,434.29144,253.53516,434.14844C250.29453,433.8625,250.19922,433.81488,249.29375,432.09918C248.19766,429.95465,247.43515,429.6211,245.71953,430.47894C243.9086,431.43207,243.38437,432.19452,243.19376,434.10077C243.00311,436.14996,241.95468,436.48358,240.00078,435.0063L238.57109,433.95782L236.85547,435.24457C234.23438,437.2461,233.47186,438.6281,234.23438,440.0578C234.80624,441.10626,234.75859,441.34454,233.71014,442.25C233.09062,442.77423,231.94687,443.5844,231.13672,443.96564C230.3742,444.39453,229.46875,445.0617,229.13516,445.49066C228.42032,446.4438,228.325,449.35077,229.03984,449.35077C229.37344,449.35077,229.46875,449.97028,229.27812,451.11407C228.08672,458.11957,228.46796,461.59845,230.99374,466.93597C232.80469,470.74847,237.28436,475.32343,241.00156,477.13434C244.57578,478.89764,250.67578,480.04144,255.06015,479.75543C262.11328,479.27887,268.64218,474.3703,272.45468,466.6977C274.7422,462.075,274.3133,462.3133,278.93594,462.98047C282.31952,463.45703,284.03516,461.93207,288.8961,454.30707C289.37265,453.5445,289.5633,453.4969,289.94452,454.0688C290.1828,454.45,290.51642,455.54608,290.70703,456.4516C290.89764,457.40472,291.32654,458.5008,291.70782,458.9297C292.08905,459.35858,292.61328,460.35938,292.8039,461.1695C293.2328,462.59918,293.1375,462.7422,290.51642,464.64844C286.5609,467.5078,285.6078,469.1281,285.32187,473.32184C285.1789,475.75238,284.8453,477.03906,284.22577,477.70624C282.93906,479.13593,280.41327,485.56952,280.36563,487.47577C280.31796,488.61957,279.88907,489.6203,278.98358,490.57343C277.69687,492.0031,275.07578,497.62653,273.78906,501.77264C273.45547,502.96405,272.9789,504.10782,272.83594,504.39374C272.64532,504.63202,272.2164,505.68045,271.93048,506.63358C271.025,509.39764,270.31015,509.6836,268.4039,507.96796C266.49765,506.3,265.8781,506.20468,265.21094,507.44376C264.2578,509.25467,264.73438,511.44687,267.1172,516.3078C269.5,521.1211,269.5,521.1211,269.11874,524.21875C268.88046,525.8867,268.78516,529.0797,268.92813,531.27185C269.1664,535.275,268.59454,539.3258,267.35547,542.0422C266.64063,543.71014,265.30624,546.66486,263.63828,550.382C263.01874,551.8117,261.5414,553.86096,260.4453,554.90936C256.39453,558.76953,253.43985,564.25,251.39063,571.82733C250.8664,573.78125,248.48358,583.3125,246.10077,593.03436C243.52734,603.42346,241.38281,611.1914,240.85858,611.9539C240.33438,612.6211,239.95313,613.5742,239.95313,614.09845C239.90546,616.29065,237.57031,626.15546,236.61719,628.2047C235.71172,630.11096,235.37811,630.4445,234.32968,630.34924C233.28125,630.20624,233.04297,630.4445,232.75702,631.73126C232.61406,632.58905,232.23282,633.58984,231.99454,633.8758C231.75626,634.20935,231.2797,635.6867,230.94609,637.1164C230.61249,638.5461,229.70703,641.40546,228.94452,643.407C228.18204,645.45624,227.5625,647.60077,227.5625,648.22034C227.5625,648.88745,227.27655,649.65,226.94296,649.9359C225.51328,651.0797,223.27344,656.75073,223.27344,659.08594C223.27344,663.27966,225.79922,664.2328,238.38046,664.614C245.05234,664.8047,245.6242,664.757,245.86249,663.9469C246.19609,662.8031,246.19609,660.2297,245.86249,657.7516C245.6242,656.1789,245.86249,655.1781,247.00626,652.7477C248.72186,649.12573,249.48438,646.55237,249.48438,644.21716C249.48438,643.1687,249.96094,641.78674,250.67578,640.7383C252.0578,638.6891,252.15312,637.9266,251.10468,637.0687C250.58047,636.63983,250.4375,636.0203,250.67578,634.9242C250.8664,633.8758,250.72343,633.16095,250.19922,632.6844C249.19843,631.6359,249.2461,631.39764,251.29532,629.15784C253.2492,627.0133,254.53593,623.868,253.77344,623.10547C253.43985,622.77185,253.29688,622.91486,253.29688,623.4391C253.29688,623.868,252.96329,624.2492,252.58203,624.2492C251.48593,624.2492,251.72421,622.91486,253.29688,619.5789C254.10703,617.91095,254.72656,616.0047,254.72656,615.3375C254.72656,614.6703,255.48906,612.71643,256.4422,611.0008C263.0664,598.84845,264.2578,596.6086,265.16327,594.70233C265.73517,593.5109,267.02188,591.41406,268.0703,590.03204C271.025,586.1242,274.78986,575.54456,275.9336,567.8719C276.17188,566.39453,276.9344,564.8695,278.36407,562.91565C279.5078,561.3906,281.79532,557.5781,283.36798,554.4328C286.41797,548.47577,288.3719,545.33044,289.7539,544.1867C290.70703,543.3766,293.75702,538.8016,294.61484,536.8953C294.94843,536.1805,295.56796,535.6086,295.9969,535.6086C297.1883,535.6086,300.1906,537.8008,300.95313,539.1828C301.71564,540.6125,301.38202,541.89923,299.33282,545.13983C296.23517,549.9531,294.61484,553.6703,294.51953,556.2914C294.4242,557.6258,293.94763,560.4375,293.3758,562.53436C292.66095,565.34607,292.375,567.8242,292.375,571.875C292.375,578.5469,292.66095,579.0711,297.76013,581.6922C300.4289,583.02655,301.71564,583.40784,303.71716,583.40784C306.67188,583.40784,306.76718,583.59845,304.95624,588.3164C303.14532,593.17737,301.76328,600.1828,302.0492,603.1852C302.52576,607.76013,305.14685,610.4289,309.19763,610.4289C314.63046,610.4289,322.82733,602.42267,325.925,593.9875C326.44922,592.65314,327.21173,591.08044,327.64063,590.41327C329.54688,587.64923,329.78516,585.98126,328.83203,582.21643C327.8789,578.35626,327.78357,579.1188,330.54767,568.6344C332.3109,562.0578,332.21564,560.96173,329.59454,557.0062C327.307,553.575,327.49765,553.2414,339.1258,541.1367C342.17578,537.9437,345.03516,534.65546,345.46405,533.75C345.9406,532.8922,346.41718,530.9383,346.56015,529.46094C346.7508,527.65,347.1797,526.3633,347.9422,525.4578C348.5617,524.6953,349.08594,523.78986,349.08594,523.40857C349.08594,522.26483,351.42108,516.8797,352.3742,515.8789C353.75623,514.40155,355.23358,511.3039,355.71014,508.92108C355.94843,507.72968,356.71094,504.25076,357.3781,501.20078C358.09296,498.1031,359.04608,492.575,359.47498,488.85785L360.33282,482.09064L366.0039,480.27972C369.14923,479.27887,372.10388,478.42108,372.58044,478.42108C373.057,478.42108,374.2484,477.5633,375.2492,476.5625C376.91718,474.84686,384.44687,470.79608,385.9242,470.79608C386.2578,470.79608,387.06796,470.2719,387.83044,469.65234C389.02185,468.60394,389.1172,468.31793,389.1172,464.64844C389.1172,462.5039,388.92657,460.40704,388.6883,459.93048C388.45,459.50153,387.63983,456.97577,386.97266,454.35468C385.3047,448.35004,382.15936,438.67578,381.15857,436.76953C380.72968,435.9594,378.34686,432.19452,375.77344,428.38202C369.6258,419.13672,368.91095,417.8023,367.4336,413.3703C366.71875,411.27344,365.6703,408.79535,365.05078,407.84222C363.76404,405.84064,351.70703,393.59296,348.60938,391.1148C347.41797,390.2094,345.8453,389.11328,345.03516,388.6844C341.98517,387.20703,333.16876,384.44293,331.88202,384.6336C330.64294,384.82422,330.5,384.6812,330.0711,382.5844C329.78516,381.29767,329.68982,379.96332,329.78516,379.53436C329.9281,379.15314,330.11874,378.4859,330.26172,378.05707C330.45233,377.48517,330.6906,377.4375,331.1195,377.77106C331.45313,378.05707,331.97736,378.10468,332.35858,377.8664C333.26404,377.34222,332.73984,367.38202,331.7867,366.66718C331.3578,366.3813,331.02423,364.71332,330.88123,362.13983C330.6906,359.47113,330.26172,357.23126,329.54688,355.6109C327.49765,350.79767,321.15936,346.41327,316.29843,346.41327C314.63046,346.41327,312.9625,346.9375,309.6742,348.5578 Z M362.47736,448.11176C363.00156,448.77887,364.47888,450.0656,365.8133,451.01874C369.10156,453.44922,371.15076,457.6906,369.4828,458.6914C368.7203,459.16797,361.3336,461.7414,361.14294,461.59845C361.0953,461.5031,360.95233,458.31012,360.85703,454.45C360.61874,446.39606,360.76172,445.9195,362.47736,448.11176 Z"/> </g> </g> </svg>